<svg xmlns="http://www.w3.org/2000/svg" width="2560" height="675" viewBox="0 0 2560 675" version="1.1"><path d="M 1053.242 68.250 L 1053.500 123.500 1065.250 123.782 L 1077 124.063 1077.006 99.782 C 1077.009 86.427, 1077.456 73.899, 1077.999 71.943 C 1078.543 69.987, 1080.370 67.062, 1082.059 65.443 C 1084.752 62.864, 1085.862 62.500, 1091.046 62.500 C 1096.301 62.500, 1097.300 62.839, 1099.999 65.537 C 1104.173 69.712, 1104.987 75.691, 1104.994 102.250 L 1105 124 1116.500 124 L 1128 124 1128 94.182 C 1128 70.675, 1127.685 63.301, 1126.510 59.345 C 1122.969 47.423, 1114.058 40.924, 1101.195 40.883 C 1092.812 40.857, 1087.257 42.966, 1081.128 48.504 L 1077 52.233 1077 32.616 L 1077 13 1064.992 13 L 1052.983 13 1053.242 68.250 M 1242 23.500 L 1242 34 1254.500 34 L 1267 34 1267 23.500 L 1267 13 1254.500 13 L 1242 13 1242 23.500 M 1449 68.532 L 1449 124.063 1460.750 123.782 L 1472.500 123.500 1473 96.953 C 1473.443 73.446, 1473.709 70.087, 1475.328 67.619 C 1480.247 60.121, 1493.469 60.447, 1497.684 68.171 C 1499.264 71.068, 1499.565 74.872, 1500 97.500 L 1500.500 123.500 1512 123.500 L 1523.500 123.500 1523.500 93.500 C 1523.500 67.452, 1523.268 62.837, 1521.742 58.468 C 1517.721 46.959, 1508.939 41.011, 1496 41.032 C 1487.300 41.046, 1482.396 42.874, 1476.734 48.214 L 1473 51.736 1473 32.368 L 1473 13 1461 13 L 1449 13 1449 68.532 M 1981.459 14.250 C 1981.196 14.938, 1981.097 39.800, 1981.240 69.500 L 1981.500 123.500 1993.250 123.782 L 2005 124.063 2005.006 99.782 C 2005.009 86.427, 2005.456 73.899, 2005.999 71.943 C 2006.543 69.987, 2008.370 67.062, 2010.059 65.443 C 2012.746 62.869, 2013.867 62.500, 2019 62.500 C 2024.107 62.500, 2025.260 62.875, 2027.881 65.386 C 2032.238 69.561, 2033 74.867, 2033 101.049 L 2033 124 2044.500 124 L 2056 124 2055.994 93.750 C 2055.991 76.247, 2055.558 61.950, 2054.967 59.823 C 2053.111 53.137, 2047.987 46.793, 2041.968 43.726 C 2037.446 41.421, 2035.127 40.902, 2029.269 40.883 C 2020.806 40.857, 2015.276 42.949, 2009.128 48.504 L 2005 52.233 2005 32.616 L 2005 13 1993.469 13 C 1985.165 13, 1981.803 13.350, 1981.459 14.250 M 2237.242 68.250 L 2237.500 123.500 2249 123.500 L 2260.500 123.500 2261 97.500 C 2261.558 68.478, 2261.950 66.675, 2268.357 63.635 C 2274.908 60.526, 2281.397 61.929, 2285.404 67.321 C 2287.376 69.975, 2287.530 71.719, 2288 96.821 L 2288.500 123.500 2300.250 123.782 L 2312 124.063 2312 94.213 C 2312 61.395, 2311.511 57.767, 2306.083 50.273 C 2297.396 38.281, 2276.295 37.504, 2264.750 48.752 L 2261 52.406 2261 32.703 L 2261 13 2248.992 13 L 2236.983 13 2237.242 68.250 M 2426.242 68.250 L 2426.500 123.500 2438 123.500 L 2449.500 123.500 2449.758 68.250 L 2450.017 13 2438 13 L 2425.983 13 2426.242 68.250 M 788 28 L 788 39 803.989 39 L 819.978 39 820.239 81.250 L 820.500 123.500 832 123.500 L 843.500 123.500 843.761 81.250 L 844.022 39 860.011 39 L 876 39 876 28 L 876 17 832 17 L 788 17 788 28 M 1683.241 70.250 L 1683.500 123.500 1695 123.500 L 1706.500 123.500 1706.770 102.250 L 1707.040 81 1728 81 L 1748.960 81 1749.230 102.250 L 1749.500 123.500 1761 123.500 L 1772.500 123.500 1772.759 70.250 L 1773.018 17 1761.009 17 L 1749 17 1749 38 L 1749 59 1728 59 L 1707 59 1707 38 L 1707 17 1694.991 17 L 1682.982 17 1683.241 70.250 M 905.367 41.159 C 886.076 43.343, 870.974 61.707, 871.012 82.932 C 871.044 100.442, 879.495 114.075, 894.820 121.335 C 901.165 124.341, 902.102 124.500, 913.500 124.500 C 924.862 124.500, 925.846 124.335, 932 121.394 C 935.575 119.686, 940.522 116.478, 942.993 114.265 L 947.485 110.242 942.085 105.371 C 933.627 97.742, 933.608 97.734, 930.679 100.038 C 919.415 108.898, 903.068 107.620, 897.266 97.425 C 896.038 95.266, 895.025 92.938, 895.016 92.250 C 895.004 91.279, 901.258 91, 923 91 L 951 91 950.985 84.750 C 950.977 81.313, 950.310 75.700, 949.503 72.277 C 944.232 49.923, 928.143 38.579, 905.367 41.159 M 1000 41.080 C 981.097 43.526, 967.071 57.275, 964.025 76.345 C 961.066 94.867, 970.066 112.475, 986.693 120.693 C 993.394 124.004, 995.254 124.462, 1003.470 124.822 C 1017.462 125.434, 1028.299 121.560, 1036.478 113.023 L 1039.410 109.963 1032.533 103.033 L 1025.657 96.104 1021.919 99.064 C 1009.973 108.526, 995.188 106.042, 989.394 93.599 C 983.951 81.911, 988.156 67.558, 998.384 62.913 C 1005.883 59.508, 1014.242 61.095, 1021.623 67.328 L 1024.747 69.965 1031.860 62.087 L 1038.974 54.209 1034.876 50.507 C 1029.862 45.977, 1022.031 42.237, 1016.007 41.494 C 1007.308 40.422, 1005.454 40.374, 1000 41.080 M 1189.903 41.078 C 1184.195 41.963, 1180.026 44.079, 1174.940 48.673 L 1171 52.233 1171 47.116 L 1171 42 1158.989 42 L 1146.978 42 1147.239 82.750 L 1147.500 123.500 1159 123.500 L 1170.500 123.500 1171 97.500 C 1171.452 73.989, 1171.687 71.190, 1173.456 68.266 C 1177.664 61.309, 1188.424 59.962, 1194.139 65.678 C 1198.156 69.695, 1198.987 75.956, 1198.994 102.250 L 1199 124 1210.500 124 L 1222 124 1222 94.182 C 1222 61.398, 1221.511 57.766, 1216.083 50.273 C 1210.991 43.244, 1200.257 39.474, 1189.903 41.078 M 1395.291 41.101 C 1374.280 43.702, 1359 61.350, 1359 83.016 C 1359 100.332, 1368.486 114.846, 1384.587 122.165 C 1388.769 124.066, 1391.285 124.405, 1401.500 124.449 C 1411.922 124.493, 1414.146 124.202, 1418.410 122.235 C 1424.127 119.599, 1432.662 113.323, 1433.500 111.140 C 1433.876 110.159, 1431.744 107.277, 1427.416 102.916 L 1420.753 96.201 1416.353 99.560 C 1406.999 106.700, 1397.001 106.609, 1388.921 99.310 C 1381.816 92.891, 1380.194 81.429, 1384.988 71.525 C 1390.515 60.107, 1405.373 57.636, 1415.643 66.426 L 1419.680 69.882 1425.127 64.191 C 1434.881 54.002, 1434.547 54.781, 1430.775 51.022 C 1426.632 46.892, 1417.010 42.240, 1411.068 41.495 C 1408.556 41.180, 1405.375 40.789, 1404 40.627 C 1402.625 40.465, 1398.706 40.678, 1395.291 41.101 M 1573.367 41.159 C 1554.076 43.343, 1538.974 61.707, 1539.012 82.932 C 1539.044 100.442, 1547.495 114.075, 1562.820 121.335 C 1569.165 124.341, 1570.102 124.500, 1581.500 124.500 C 1592.862 124.500, 1593.846 124.335, 1600 121.394 C 1603.575 119.686, 1608.522 116.478, 1610.993 114.265 L 1615.485 110.242 1610.085 105.371 C 1601.627 97.742, 1601.608 97.734, 1598.679 100.038 C 1587.415 108.898, 1571.068 107.620, 1565.266 97.425 C 1564.038 95.266, 1563.025 92.938, 1563.016 92.250 C 1563.004 91.279, 1569.258 91, 1591 91 L 1619 91 1618.985 84.750 C 1618.977 81.313, 1618.310 75.700, 1617.503 72.277 C 1612.232 49.923, 1596.143 38.579, 1573.367 41.159 M 1828.907 41.094 C 1800.972 45.063, 1784.733 71.375, 1793.981 97.685 C 1802.393 121.620, 1832.917 132.264, 1857.392 119.797 C 1862.569 117.160, 1870.610 109.537, 1873.493 104.534 C 1881.739 90.222, 1881.086 72.532, 1871.796 58.505 C 1863.655 46.215, 1845.303 38.765, 1828.907 41.094 M 1928.287 41.064 C 1906.356 44.045, 1891.625 61.134, 1891.763 83.436 C 1891.869 100.631, 1900.408 114.031, 1915.953 121.397 C 1922.110 124.315, 1923.185 124.498, 1934 124.475 C 1948.005 124.444, 1953.881 122.476, 1962.061 115.079 L 1967.500 110.160 1960.627 103.181 L 1953.753 96.201 1949.336 99.573 C 1934.713 110.735, 1916.494 102.974, 1915.196 85.029 C 1913.670 63.933, 1933.516 53.729, 1949.623 67.328 L 1952.747 69.965 1959.860 62.087 L 1966.974 54.209 1962.876 50.507 C 1957.862 45.977, 1950.031 42.237, 1944.007 41.494 C 1935.226 40.412, 1933.444 40.363, 1928.287 41.064 M 2183.336 41.110 C 2170.794 42.636, 2157.757 51.794, 2152.148 63.019 C 2141.215 84.899, 2149.329 110.134, 2170.693 120.693 C 2177.394 124.004, 2179.254 124.462, 2187.470 124.822 C 2201.462 125.434, 2212.299 121.560, 2220.478 113.023 L 2223.410 109.963 2216.552 103.052 L 2209.694 96.142 2205.277 99.515 C 2196.050 106.560, 2184.347 106.347, 2177 99 C 2170.059 92.059, 2168.890 77.932, 2174.578 69.745 C 2181.771 59.391, 2194.977 58.339, 2205.562 67.276 L 2208.624 69.861 2215.790 62.027 L 2222.956 54.193 2218.868 50.499 C 2213.861 45.976, 2206.028 42.236, 2200.007 41.494 C 2191.202 40.409, 2189.430 40.368, 2183.336 41.110 M 2501.360 41.159 C 2482.159 43.334, 2467 61.793, 2467 83 C 2467 100.149, 2475.719 114.181, 2490.820 121.335 C 2497.170 124.344, 2498.096 124.500, 2509.552 124.500 C 2521.428 124.500, 2521.713 124.446, 2529.052 120.814 C 2533.148 118.787, 2538.032 115.543, 2539.905 113.606 L 2543.310 110.085 2537.997 105.292 C 2529.422 97.557, 2529.818 97.695, 2525.390 100.894 C 2514.211 108.969, 2499.254 107.409, 2493.486 97.566 C 2492.119 95.233, 2491 92.801, 2491 92.162 C 2491 91.307, 2498.396 91, 2519 91 L 2547 91 2547 84.210 C 2547 61.161, 2533.323 43.477, 2513.729 41.191 C 2510.303 40.791, 2504.737 40.777, 2501.360 41.159 M 1302.492 42.797 C 1291.439 46.619, 1285 55.244, 1285 66.228 C 1285 80.012, 1290.870 85.781, 1311.740 92.509 C 1323.385 96.263, 1326.253 98.316, 1325.244 102.177 C 1323.516 108.785, 1307.588 107.564, 1295.498 99.897 C 1292.862 98.225, 1290.435 97.271, 1290.103 97.777 C 1289.771 98.283, 1287.497 101.748, 1285.049 105.477 L 1280.598 112.256 1283.046 114.238 C 1295.329 124.185, 1318.240 127.824, 1331.812 121.985 C 1342.234 117.502, 1348.017 107.233, 1346.644 95.646 C 1345.436 85.445, 1338.148 79.379, 1319.281 72.874 C 1308.497 69.155, 1305.073 66.330, 1306.789 62.564 C 1307.540 60.916, 1309.035 59.897, 1311.333 59.465 C 1315.285 58.724, 1325.068 60.974, 1330.959 63.979 C 1333.138 65.091, 1335.349 66, 1335.873 66 C 1337.277 66, 1345.223 50.820, 1344.293 49.914 C 1342.474 48.143, 1332.920 43.954, 1327.455 42.530 C 1319.706 40.512, 1308.762 40.629, 1302.492 42.797 M 2092.500 42.399 C 2079.670 46.456, 2073.676 54.085, 2073.563 66.500 C 2073.443 79.780, 2079.629 85.935, 2099.304 92.111 C 2110.884 95.747, 2114.619 98.398, 2113.641 102.293 C 2112.115 108.373, 2100.066 107.846, 2086.730 101.116 L 2078.961 97.195 2074.015 104.847 L 2069.068 112.500 2071.284 114.212 C 2079.158 120.294, 2093.678 125, 2104.571 125 C 2112.181 125, 2121.811 122.145, 2126.651 118.452 C 2131.573 114.698, 2135.097 106.734, 2135.127 99.297 C 2135.180 86.313, 2129.668 80.765, 2109.481 73.479 C 2096.668 68.854, 2094.791 67.635, 2095.190 64.195 C 2095.910 57.973, 2105.690 57.668, 2117.836 63.489 L 2124.744 66.799 2127.027 62.650 C 2128.283 60.367, 2130.391 56.617, 2131.712 54.315 L 2134.114 50.130 2126.807 46.662 C 2115.101 41.106, 2101.810 39.455, 2092.500 42.399 M 1242.239 82.750 L 1242.500 123.500 1254.250 123.782 L 1266 124.063 1266 83.032 L 1266 42 1253.989 42 L 1241.978 42 1242.239 82.750 M 2331 71.818 C 2331 105.430, 2331.490 108.708, 2337.585 115.828 C 2343.310 122.516, 2347.936 124.476, 2358 124.476 C 2367.712 124.476, 2371.890 122.816, 2378.250 116.431 L 2382 112.667 2382 118.365 L 2382 124.063 2393.750 123.782 L 2405.500 123.500 2405.500 83 L 2405.500 42.500 2393.750 42.218 L 2382 41.937 2382 66.756 C 2382 90.508, 2381.903 91.768, 2379.750 96.035 C 2377.067 101.352, 2374.216 102.965, 2367.473 102.985 C 2361.721 103.002, 2358.782 101.351, 2356.270 96.689 C 2354.803 93.969, 2354.496 89.714, 2354.177 67.750 L 2353.803 42 2342.402 42 L 2331 42 2331 71.818 M 903.500 61.861 C 899.263 64.478, 897.275 66.970, 895.571 71.800 L 894.089 76 910.975 76 L 927.860 76 927.055 73.192 C 925.551 67.948, 922.912 63.917, 919.701 61.960 C 915.506 59.401, 907.560 59.353, 903.500 61.861 M 1571.500 61.861 C 1567.263 64.478, 1565.275 66.970, 1563.571 71.800 L 1562.089 76 1578.975 76 L 1595.860 76 1595.055 73.192 C 1593.551 67.948, 1590.912 63.917, 1587.701 61.960 C 1583.506 59.401, 1575.560 59.353, 1571.500 61.861 M 2499.500 61.861 C 2495.263 64.478, 2493.275 66.970, 2491.571 71.800 L 2490.089 76 2507.112 76 L 2524.135 76 2523.474 73.750 C 2522.020 68.798, 2519.158 64.386, 2516.015 62.250 C 2511.778 59.371, 2503.834 59.183, 2499.500 61.861 M 1827.655 62.459 C 1819.704 65.294, 1814.986 72.803, 1815.022 82.566 C 1815.049 89.849, 1817.414 95.401, 1822.330 99.716 C 1832.192 108.375, 1847.607 105.449, 1853.403 93.818 C 1862.568 75.428, 1846.425 55.766, 1827.655 62.459 M 1203 213.444 L 1203 232.887 1199.750 229.831 C 1187.841 218.634, 1167.092 218.919, 1154.261 230.455 C 1145.630 238.215, 1140.990 249.950, 1141.012 263.960 C 1141.040 281.792, 1149.322 296.180, 1163.266 302.620 C 1168.629 305.098, 1170.687 305.494, 1178 305.454 C 1187.684 305.402, 1192.739 303.436, 1199.250 297.191 L 1203 293.594 1203 298.797 L 1203 304 1214.500 304 L 1226 304 1226 249 L 1226 194 1214.500 194 L 1203 194 1203 213.444 M 1433 249 L 1433 304 1444.500 304 L 1456 304 1456 299.507 L 1456 295.013 1460.750 298.652 C 1467.008 303.446, 1470.840 304.967, 1478.456 305.678 C 1495.325 307.253, 1510.867 296.124, 1516.168 278.673 C 1517.891 272.999, 1518.173 269.975, 1517.808 261.100 C 1517.422 251.734, 1516.975 249.543, 1514.269 243.760 C 1508.592 231.629, 1499.491 224.344, 1487.098 222.011 C 1476.542 220.024, 1463.879 224.253, 1457.997 231.731 L 1456 234.270 1456 214.135 L 1456 194 1444.500 194 L 1433 194 1433 249 M 795 251.061 L 795 304.122 828.250 303.796 C 859.967 303.484, 861.757 303.365, 867.079 301.226 C 881.841 295.294, 888.884 281.434, 884.610 266.730 C 882.606 259.836, 879.246 255.721, 872.529 251.930 L 867.370 249.018 872.545 243.674 C 876.581 239.508, 878 237.168, 878.987 233.055 C 882.961 216.491, 872.874 202.481, 854.535 199.091 C 851.212 198.477, 836.913 198, 821.816 198 L 795 198 795 251.061 M 819 230.111 L 819 241.222 833.250 240.815 C 852.072 240.277, 856 238.327, 856 229.520 C 856 225.063, 852.839 221.604, 847.378 220.088 C 845.245 219.496, 837.987 219.009, 831.250 219.006 L 819 219 819 230.111 M 943.500 221.935 C 941.850 222.337, 939.116 223.387, 937.425 224.268 C 934.083 226.010, 927.106 233.242, 926.827 235.253 C 926.732 235.939, 926.395 233.575, 926.077 230 L 925.500 223.500 913.750 223.218 L 902 222.937 902 263.468 L 902 304 914 304 L 926 304 926 284.678 C 926 262.743, 926.871 258.499, 932.579 252.622 C 935.977 249.123, 943.571 246, 948.682 246 C 950.983 246, 951 245.906, 951 233.500 C 951 219.562, 951.306 220.035, 943.500 221.935 M 1092 221.889 C 1086.943 222.978, 1082.038 225.705, 1077.750 229.813 L 1074 233.406 1074 228.203 L 1074 223 1062 223 L 1050 223 1050 263.500 L 1050 304 1061.939 304 L 1073.877 304 1074.189 278.250 C 1074.537 249.466, 1074.915 247.692, 1081.357 244.635 C 1088.479 241.255, 1096.552 243.545, 1099.665 249.827 C 1101.248 253.021, 1101.530 256.795, 1101.831 278.750 L 1102.177 304 1113.588 304 L 1125 304 1125 274.682 C 1125 242.291, 1124.510 238.765, 1118.941 231.077 C 1113.878 224.088, 1101.461 219.853, 1092 221.889 M 1275.594 222.047 C 1268.354 223.275, 1258.847 228.358, 1254.042 233.570 C 1245.377 242.971, 1240.882 257.824, 1242.859 270.523 C 1245.447 287.146, 1255.838 299.463, 1271.213 304.133 C 1281.413 307.231, 1294.239 306.480, 1303.265 302.257 C 1309.260 299.452, 1318 292.778, 1318 291.006 C 1318 290.587, 1315.066 287.668, 1311.479 284.519 L 1304.958 278.794 1301.495 281.436 C 1292.355 288.407, 1278.918 288.757, 1271.680 282.212 C 1269.980 280.674, 1266 273.897, 1266 272.540 C 1266 272.243, 1278.652 272, 1294.116 272 L 1322.233 272 1321.773 262.250 C 1320.650 238.414, 1307.756 223.606, 1286.500 221.742 C 1283.200 221.452, 1278.292 221.590, 1275.594 222.047 M 1380.326 222.016 C 1374.857 223.135, 1370.769 225.311, 1365.940 229.673 L 1362 233.233 1362 228.116 L 1362 223 1350.500 223 L 1339 223 1339 263.500 L 1339 304 1350.500 304 L 1362 304 1362 282.136 C 1362 256.643, 1362.822 250.721, 1366.928 246.612 C 1370.587 242.951, 1378.012 241.920, 1382.817 244.406 C 1389.044 247.626, 1389.466 249.664, 1389.811 278.250 L 1390.123 304 1402.177 304 L 1414.231 304 1413.750 273.750 C 1413.215 240.123, 1412.798 237.629, 1406.473 230.240 C 1400.617 223.399, 1389.956 220.045, 1380.326 222.016 M 1668.939 222.365 C 1662.889 223.996, 1658.847 227.005, 1655.093 232.673 L 1652 237.343 1652 230.140 L 1652 222.937 1640.250 223.218 L 1628.500 223.500 1628.239 263.750 L 1627.977 304 1639.884 304 L 1651.791 304 1652.181 284.250 C 1652.533 266.378, 1652.784 264.028, 1654.823 259.537 C 1656.062 256.807, 1657.847 253.721, 1658.788 252.680 C 1661.470 249.714, 1667.675 246.944, 1673.068 246.305 L 1678 245.721 1678 233.361 C 1678 219.314, 1678.409 219.811, 1668.939 222.365 M 1715 222.371 C 1699.332 225.911, 1689.424 236.889, 1687.103 253.279 C 1684.829 269.336, 1690.552 283.698, 1702.343 291.527 C 1715.831 300.483, 1732.915 299.612, 1744.895 289.358 C 1748.846 285.976, 1748.999 285.931, 1748.976 288.172 C 1748.930 292.475, 1746.939 299.277, 1744.877 302.173 C 1738.762 310.760, 1720.188 312.288, 1705.129 305.442 C 1702.175 304.099, 1699.425 303, 1699.018 303 C 1698.245 303, 1691 318.230, 1691 319.855 C 1691 321.508, 1703.770 325.960, 1713.269 327.619 C 1729.855 330.516, 1748.489 327.775, 1757.732 321.079 C 1763.153 317.152, 1766.619 312.432, 1769.277 305.355 C 1771.377 299.763, 1771.490 297.783, 1771.802 261.250 L 1772.128 223 1760.064 223 L 1748 223 1748 227.547 L 1748 232.094 1744.250 229.093 C 1736.138 222.600, 1725.155 220.076, 1715 222.371 M 978.500 223.655 C 974.650 224.475, 969.608 225.979, 967.295 226.997 L 963.091 228.847 966.094 237.804 L 969.098 246.760 975.299 244.793 C 983.535 242.181, 997.201 241.942, 1001.733 244.330 C 1005.177 246.145, 1007.342 249.538, 1008.310 254.638 L 1008.905 257.776 1004.203 256.319 C 997.524 254.250, 981.813 254.220, 975 256.264 C 964.938 259.282, 958.866 265.514, 956.938 274.801 C 955.007 284.099, 957.866 293.392, 964.478 299.310 C 973.498 307.384, 991.928 307.951, 1003.007 300.495 L 1008 297.135 1008 300.568 L 1008 304 1019.500 304 L 1031 304 1031 276.182 C 1031 245.535, 1030.455 241.689, 1025.052 234.231 C 1017.382 223.642, 998.592 219.373, 978.500 223.655 M 1534.197 254.250 C 1534.493 284.741, 1534.558 285.629, 1536.892 290.794 C 1544.471 307.567, 1567.176 311.074, 1581.392 297.667 L 1585 294.264 1585 299.132 L 1585 304 1597 304 L 1609 304 1609 263.500 L 1609 223 1597 223 L 1585 223 1584.994 247.250 C 1584.991 260.587, 1584.542 273.108, 1583.996 275.074 C 1582.475 280.549, 1578.952 283.257, 1572.671 283.777 C 1566.014 284.329, 1561.886 282.387, 1559.635 277.643 C 1558.254 274.733, 1558 270.220, 1558 248.599 L 1558 223 1545.947 223 L 1533.895 223 1534.197 254.250 M 1274.054 243.166 C 1270.379 245.662, 1267.565 249.770, 1266.461 254.250 L 1265.783 257 1282.392 257 C 1300.728 257, 1300.215 257.227, 1297.110 250.500 C 1294.040 243.849, 1290.869 241.648, 1283.718 241.208 C 1278.462 240.884, 1276.967 241.187, 1274.054 243.166 M 1720.234 243.571 C 1714.120 246.618, 1711.158 250.867, 1710.341 257.766 C 1709.135 267.949, 1716.084 276.394, 1726.704 277.651 C 1744.969 279.815, 1755.790 259.555, 1743.131 246.896 C 1736.875 240.640, 1728.543 239.430, 1720.234 243.571 M 1173.840 244.887 C 1167.614 248.835, 1164.993 254.387, 1165.022 263.566 C 1165.048 271.742, 1167.218 277.322, 1171.903 281.265 C 1180.900 288.835, 1194.098 286.287, 1199.967 275.846 C 1203.018 270.416, 1203.715 261.670, 1201.604 255.313 C 1197.559 243.135, 1184.396 238.192, 1173.840 244.887 M 1467.422 243.418 C 1461.006 246.212, 1455.991 255.338, 1456.006 264.193 C 1456.029 277.848, 1467.937 288.248, 1479.871 285.035 C 1493.503 281.364, 1499.055 262.857, 1490.450 249.770 C 1485.929 242.893, 1475.338 239.972, 1467.422 243.418 M 819 272 L 819 283 835.532 283 C 853.348 283, 857.365 282.172, 860.369 277.883 C 864.029 272.659, 861.406 265.180, 855.018 262.624 C 851.865 261.362, 847.393 261, 834.980 261 L 819 261 819 272 M 988 269.586 C 981.203 272.124, 978.415 276.071, 979.466 281.669 C 980.354 286.406, 984.783 288.991, 992.016 288.996 C 998.632 289.001, 1003.573 286.655, 1006.750 282.001 C 1009.685 277.701, 1009.743 272.468, 1006.873 270.932 C 1004.553 269.691, 990.420 268.683, 988 269.586 M 1640.764 369.931 C 1631.115 373.064, 1626.827 379.474, 1626.183 391.726 L 1625.749 400 1620.875 400 L 1616 400 1616 405 L 1616 410 1621 410 L 1626 410 1626 441.500 L 1626 473 1631.500 473 L 1637 473 1637 441.500 L 1637 410 1648.500 410 L 1660 410 1660 405 L 1660 400 1648.500 400 L 1637 400 1637.006 395.750 C 1637.020 385.136, 1641.109 379.515, 1648.825 379.506 C 1651.396 379.502, 1654.963 379.826, 1656.750 380.225 L 1660 380.950 1660 376.034 C 1660 373.330, 1659.535 370.831, 1658.967 370.479 C 1657.218 369.399, 1643.662 368.990, 1640.764 369.931 M 988 378 L 988 384 994.500 384 L 1001 384 1001 378 L 1001 372 994.500 372 L 988 372 988 378 M 1313 378 L 1313 384 1319.500 384 L 1326 384 1326 378 L 1326 372 1319.500 372 L 1313 372 1313 378 M 795 405.364 C 795 422.613, 795.452 439.151, 796.005 442.114 C 798.447 455.196, 807.390 466.602, 818.798 471.182 C 823.624 473.119, 826.344 473.473, 836.500 473.485 C 847.905 473.499, 848.830 473.344, 855.159 470.345 C 862.264 466.979, 869.034 460.818, 871.977 455.040 C 876.635 445.893, 877 442.424, 877 407.318 L 877 374 871.591 374 L 866.183 374 865.787 407.250 C 865.415 438.595, 865.267 440.817, 863.202 446.041 C 860.875 451.931, 855.775 457.571, 850 460.640 C 844.644 463.487, 827.986 463.304, 822.500 460.338 C 817.061 457.397, 812.559 452.491, 809.801 446.500 C 807.566 441.643, 807.491 440.535, 807.201 407.750 L 806.901 374 800.951 374 L 795 374 795 405.364 M 1353 388.445 L 1353 398.890 1348.250 399.195 L 1343.500 399.500 1343.198 404.750 L 1342.895 410 1347.885 410 L 1352.875 410 1353.188 435.250 C 1353.490 459.690, 1353.576 460.632, 1355.868 464.632 C 1359.480 470.936, 1364.790 473.514, 1374 473.437 C 1378.125 473.403, 1382.737 472.851, 1384.250 472.212 C 1386.742 471.159, 1387 470.568, 1387 465.918 C 1387 461.410, 1386.787 460.878, 1385.250 461.540 C 1384.287 461.954, 1380.704 462.504, 1377.287 462.761 C 1371.416 463.203, 1370.907 463.061, 1368.037 460.191 L 1365 457.154 1365 433.577 L 1365 410 1376.552 410 L 1388.105 410 1387.802 404.750 L 1387.500 399.500 1376.250 399.217 L 1365 398.934 1365 388.467 L 1365 378 1359 378 L 1353 378 1353 388.445 M 927.882 399.381 C 922.497 401.305, 917.442 404.689, 915.353 407.768 L 913.500 410.500 913 405 L 912.500 399.500 907 399.500 L 901.500 399.500 901.238 436.250 L 900.975 473 906.925 473 L 912.875 473 913.188 447.583 L 913.500 422.167 916.542 417.842 C 921.327 411.037, 925.969 408.867, 935 409.213 C 943.846 409.552, 947.745 411.737, 951.273 418.334 C 953.378 422.271, 953.518 423.889, 953.826 447.750 L 954.152 473 959.576 473 L 965 473 965 446.538 C 965 416.325, 964.291 412.620, 957.186 405.681 C 950.204 398.864, 937.170 396.061, 927.882 399.381 M 1123.324 399.380 C 1098.120 407.618, 1089.754 442.346, 1108.131 462.452 C 1111.105 465.707, 1115.418 469.040, 1118.810 470.706 C 1123.944 473.227, 1125.527 473.500, 1135.021 473.500 C 1144.831 473.500, 1145.980 473.284, 1152.021 470.309 C 1155.584 468.553, 1159.964 465.605, 1161.753 463.758 L 1165.006 460.398 1161.508 457.008 L 1158.009 453.617 1155.255 456.219 C 1141.352 469.351, 1118.325 465.177, 1112.043 448.385 C 1108.636 439.280, 1106.363 440, 1138.500 440 L 1167 440 1167 434.105 C 1167 420.250, 1159.644 407.195, 1148.676 401.586 C 1141.879 398.110, 1130.295 397.102, 1123.324 399.380 M 1217.500 399.399 C 1209.139 402.043, 1203.659 406.393, 1199.103 414 L 1197.007 417.500 1197.004 408.250 L 1197 399 1191.500 399 L 1186 399 1186 436 L 1186 473 1191.500 473 L 1197 473 1197 457.184 C 1197 439.443, 1198.084 431.741, 1201.540 424.920 C 1205.583 416.942, 1214.553 411.064, 1222.750 411.022 L 1227 411 1227 404.500 C 1227 398.060, 1226.975 398.001, 1224.250 398.067 C 1222.737 398.104, 1219.700 398.703, 1217.500 399.399 M 1256.810 399.398 C 1249.933 401.249, 1245.310 404.814, 1242.483 410.446 C 1239.834 415.723, 1239.333 421.110, 1241.067 425.685 C 1243.543 432.220, 1249.550 435.936, 1265.661 440.900 C 1280.545 445.486, 1284.583 450.103, 1280.544 457.915 C 1276.638 465.468, 1263.209 466.051, 1249.887 459.244 L 1242.053 455.242 1239.438 458.670 C 1238 460.555, 1237.040 462.663, 1237.305 463.353 C 1238.049 465.292, 1248.995 470.764, 1255.542 472.469 C 1276.615 477.958, 1294.430 467.237, 1292.780 450.060 C 1291.884 440.734, 1286.321 436.159, 1269 430.503 C 1258.808 427.174, 1255.713 425.682, 1253.029 422.801 C 1248.941 418.413, 1251.570 412.094, 1258.600 409.409 C 1262.558 407.897, 1264.168 407.794, 1269.510 408.709 C 1272.956 409.299, 1278.151 410.975, 1281.053 412.433 C 1285.195 414.513, 1286.518 414.806, 1287.202 413.792 C 1288.590 411.734, 1291 407.149, 1291 406.567 C 1291 405.393, 1280.662 400.897, 1274.769 399.508 C 1267.262 397.738, 1263.071 397.712, 1256.810 399.398 M 1552.909 399.831 C 1536.852 405.156, 1526.932 418.926, 1526.895 435.941 C 1526.861 451.292, 1534.018 463.235, 1547.500 470.327 C 1553.123 473.285, 1554.160 473.484, 1564 473.492 C 1573.486 473.499, 1575.106 473.220, 1580.782 470.599 C 1588.841 466.878, 1596.933 458.364, 1600.092 450.285 C 1603.245 442.220, 1603.251 429.795, 1600.106 421.753 C 1597.028 413.881, 1589.502 405.865, 1581.484 401.917 C 1573.185 397.832, 1561.508 396.979, 1552.909 399.831 M 989 436 L 989 473 994.500 473 L 1000 473 1000 436 L 1000 399 994.500 399 L 989 399 989 436 M 1018 400.310 C 1018 401.030, 1024.892 417.568, 1033.315 437.060 L 1048.631 472.500 1053.937 472.500 L 1059.244 472.500 1074.611 437 C 1083.063 417.475, 1089.983 400.938, 1089.989 400.250 C 1089.997 399.404, 1088.264 399, 1084.622 399 C 1081.495 399, 1078.847 399.523, 1078.293 400.250 C 1077.770 400.938, 1072.202 414.212, 1065.921 429.749 C 1059.639 445.286, 1054.275 457.989, 1054 457.978 C 1053.725 457.967, 1048.599 445.705, 1042.609 430.729 C 1036.619 415.753, 1031.096 402.488, 1030.336 401.250 C 1029.174 399.359, 1028.081 399, 1023.477 399 C 1019.628 399, 1018 399.389, 1018 400.310 M 1313.476 400.203 C 1313.200 400.922, 1313.092 417.483, 1313.237 437.005 L 1313.500 472.500 1319.262 472.800 L 1325.025 473.101 1324.762 436.300 L 1324.500 399.500 1319.239 399.197 C 1315.599 398.988, 1313.823 399.298, 1313.476 400.203 M 1399 399.802 C 1399 400.296, 1406.200 416.460, 1415 435.721 C 1423.800 454.983, 1431 471.268, 1431 471.911 C 1431 474.246, 1426.989 480.864, 1424.278 483.002 C 1421.909 484.871, 1420.617 485.120, 1415.500 484.696 C 1412.200 484.422, 1408.551 483.892, 1407.391 483.519 C 1405.611 482.946, 1405.025 483.481, 1403.641 486.940 C 1402.738 489.195, 1402 491.208, 1402 491.412 C 1402 492.825, 1411.130 495, 1417.060 495 C 1427.982 495, 1433.905 491.059, 1439.440 480.107 C 1442.430 474.191, 1472 401.515, 1472 400.082 C 1472 399.436, 1469.761 399, 1466.445 399 L 1460.890 399 1458.620 404.250 C 1457.372 407.137, 1452.112 420.603, 1446.933 434.174 C 1441.753 447.745, 1437.389 458.723, 1437.236 458.569 C 1437.082 458.415, 1431.168 445.062, 1424.094 428.895 L 1411.231 399.500 1405.115 399.202 C 1401.752 399.039, 1399 399.309, 1399 399.802 M 1125 409.536 C 1119.593 411.955, 1114.201 417.847, 1111.994 423.747 C 1108.670 432.631, 1107.066 432, 1132.975 432 L 1155.950 432 1155.393 428.750 C 1154.333 422.569, 1149.682 414.723, 1145.217 411.585 C 1140.004 407.921, 1130.714 406.980, 1125 409.536 M 1558.500 408.935 C 1539.369 413.593, 1531.886 439.364, 1545.255 454.552 C 1552.500 462.783, 1561.920 465.628, 1572.083 462.654 C 1586.319 458.488, 1594.049 442.999, 1589.574 427.607 C 1587.245 419.594, 1579.704 411.835, 1572.068 409.594 C 1566.300 407.901, 1563.338 407.757, 1558.500 408.935 M 1093 589.500 L 1093 641 1098.500 641 L 1104 641 1104 589.500 L 1104 538 1098.500 538 L 1093 538 1093 589.500 M 1307 559.137 L 1307 580.274 1301.967 575.566 C 1294.690 568.759, 1289.267 566.587, 1279.500 566.570 C 1272.937 566.559, 1270.477 567.031, 1265.804 569.198 C 1258.554 572.561, 1251.585 579.519, 1248.170 586.804 C 1245.741 591.985, 1245.500 593.585, 1245.500 604.500 C 1245.500 615.599, 1245.709 616.925, 1248.281 622.164 C 1251.663 629.051, 1257.696 635.270, 1264.454 638.836 C 1268.944 641.205, 1270.601 641.499, 1279.500 641.499 C 1291.209 641.500, 1293.699 640.513, 1301.750 632.678 L 1307 627.568 1307 634.284 L 1307 641 1312.500 641 L 1318 641 1318 589.500 L 1318 538 1312.500 538 L 1307 538 1307 559.137 M 1129 546.500 L 1129 553 1135.500 553 L 1142 553 1142 546.500 L 1142 540 1135.500 540 L 1129 540 1129 546.500 M 1554 546.500 L 1554 553 1560.500 553 L 1567 553 1567 546.500 L 1567 540 1560.500 540 L 1554 540 1554 546.500 M 831.639 544.250 C 830.876 546.038, 821.366 567.075, 810.506 591 C 799.645 614.925, 790.123 635.984, 789.346 637.799 L 787.933 641.097 794.113 640.799 L 800.294 640.500 805.925 628 L 811.557 615.500 838.111 615.234 L 864.664 614.968 870.455 627.984 L 876.246 641 882.598 641 L 888.950 641 885.658 633.750 C 883.848 629.763, 873.665 607.263, 863.031 583.750 L 843.695 541 838.361 541 C 833.294 541, 832.957 541.163, 831.639 544.250 M 1403.314 542.857 C 1389.285 547.705, 1381.750 558.523, 1383.455 571.370 C 1385.271 585.063, 1392.693 590.738, 1416.805 596.874 C 1434.523 601.383, 1439.149 604.127, 1441.072 611.269 C 1442.400 616.199, 1441.525 620.223, 1438.289 624.068 C 1433.049 630.295, 1424.940 632.552, 1413.585 630.941 C 1405.423 629.784, 1398.469 626.819, 1391.669 621.598 C 1386.354 617.518, 1385.839 617.608, 1381.766 623.329 L 1379.624 626.336 1383.562 629.746 C 1388.833 634.311, 1400.077 639.571, 1407.718 641.047 C 1416.741 642.789, 1430.335 641.886, 1436.500 639.133 C 1441.918 636.715, 1448.321 631.106, 1450.582 626.800 C 1455.520 617.394, 1454.354 605.509, 1447.794 598.392 C 1442.527 592.678, 1436.359 589.812, 1420.014 585.484 C 1412.596 583.520, 1404.667 580.823, 1402.394 579.491 C 1397.197 576.445, 1394.561 571.310, 1395.314 565.697 C 1396.005 560.542, 1398.574 557.116, 1404.033 554.068 C 1412.600 549.284, 1428.610 551.508, 1439.488 558.992 C 1442.047 560.752, 1444.247 562.037, 1444.377 561.846 C 1444.508 561.656, 1446.063 559.620, 1447.834 557.322 L 1451.055 553.143 1447.777 550.686 C 1435.938 541.808, 1416.337 538.357, 1403.314 542.857 M 836.295 560.010 C 835.188 562.479, 830.370 573.213, 825.587 583.862 C 820.804 594.512, 817.075 603.408, 817.299 603.633 C 817.524 603.857, 827.160 603.919, 838.714 603.770 L 859.720 603.500 850.096 582 C 844.802 570.175, 839.984 559.379, 839.389 558.010 C 838.318 555.546, 838.285 555.567, 836.295 560.010 M 935.995 567.289 C 930.540 568.836, 923.074 573.822, 919.587 578.246 L 917.022 581.500 917.011 574.750 L 917 568 911.500 568 L 906 568 906 615.500 L 906 663 911.500 663 L 917 663 917 645.497 L 917 627.994 920.608 631.987 C 922.592 634.184, 927.079 637.391, 930.580 639.114 C 936.573 642.064, 937.457 642.221, 945.722 641.801 C 956.079 641.274, 962.025 638.713, 968.790 631.867 C 982.447 618.044, 982.790 591.843, 969.507 577.140 C 961.822 568.633, 946.812 564.221, 935.995 567.289 M 1030.500 566.869 C 1024.599 568.417, 1019.426 571.509, 1014.750 576.283 L 1010 581.133 1010 574.567 L 1010 568 1004.500 568 L 999 568 999 615.500 L 999 663 1004.500 663 L 1010 663 1010 645.320 L 1010 627.640 1013.391 631.602 C 1015.256 633.781, 1019.194 636.899, 1022.141 638.532 C 1027.081 641.268, 1028.282 641.500, 1037.500 641.499 C 1046.476 641.499, 1048.034 641.217, 1052.717 638.749 C 1062.882 633.392, 1069.081 624.896, 1071.606 612.859 C 1076.511 589.480, 1061.792 568, 1039.848 566.513 C 1036.357 566.276, 1032.150 566.436, 1030.500 566.869 M 1187.929 567.305 C 1173.909 571.276, 1164.484 582.311, 1161.813 597.884 C 1158.970 614.463, 1166.873 631.341, 1180.779 638.388 C 1194.954 645.571, 1213.884 642.873, 1224.323 632.182 L 1228.146 628.266 1224.402 625.180 L 1220.658 622.093 1217.144 625.178 C 1215.212 626.875, 1211.801 629.094, 1209.565 630.110 C 1204.437 632.439, 1193.408 632.614, 1188.218 630.449 C 1181.284 627.557, 1175.225 620.043, 1173.543 612.250 L 1172.841 609 1201.421 609 L 1230 609 1230 602.468 C 1230 594.835, 1227.185 585.582, 1223.020 579.529 C 1215.959 569.266, 1200.286 563.806, 1187.929 567.305 M 1497.033 567.601 C 1478.450 572.595, 1466.226 592.223, 1469.941 611.104 C 1475.821 640.992, 1509.616 652.468, 1532.816 632.454 L 1537.132 628.731 1533.870 625.366 C 1532.076 623.515, 1530.205 622, 1529.713 622 C 1529.221 622, 1526.996 623.560, 1524.768 625.466 C 1513.279 635.301, 1495.483 633.551, 1486.932 621.747 C 1476.378 607.179, 1481.128 585.844, 1496.478 578.871 C 1501.022 576.807, 1511.239 576.380, 1515.685 578.070 C 1517.233 578.658, 1520.941 580.982, 1523.924 583.233 L 1529.348 587.327 1532.628 583.421 L 1535.908 579.514 1533.204 576.668 C 1529.260 572.516, 1522.591 568.877, 1516.147 567.360 C 1509.007 565.680, 1503.944 565.744, 1497.033 567.601 M 1612.929 567.305 C 1602.662 570.213, 1594.723 576.994, 1590.316 586.622 C 1579.206 610.889, 1592.170 637.924, 1616.821 641.894 C 1628.881 643.836, 1641.670 640.019, 1649.305 632.200 L 1653.110 628.303 1649.432 625.075 L 1645.755 621.846 1642.627 624.866 C 1637.707 629.619, 1631.501 631.953, 1623.718 631.978 C 1615.604 632.004, 1610.858 630.226, 1605.744 625.242 C 1602.541 622.121, 1598 613.170, 1598 609.978 C 1598 609.410, 1609.506 608.924, 1626.750 608.765 L 1655.500 608.500 1655.217 602 C 1654.843 593.403, 1651.859 584.647, 1647.208 578.500 C 1639.987 568.957, 1624.713 563.968, 1612.929 567.305 M 1701.224 567.409 C 1695.485 569.282, 1692.136 571.461, 1688.265 575.840 L 1685.030 579.500 1685.015 573.750 L 1685 568 1679.500 568 L 1674 568 1674 604.500 L 1674 641 1679.409 641 L 1684.818 641 1685.177 616.750 C 1685.509 594.291, 1685.693 592.205, 1687.670 588.500 C 1691.760 580.837, 1698.177 577, 1706.903 577 C 1715.556 577, 1720.717 580.149, 1724.110 587.500 C 1725.745 591.043, 1725.959 594.328, 1725.978 616.250 L 1726 641 1732 641 L 1738 641 1738 616.549 C 1738 589.319, 1737.299 584.160, 1732.664 577.256 C 1726.714 568.397, 1712.162 563.838, 1701.224 567.409 M 1784.500 567.346 C 1773.370 570.244, 1764.242 577.906, 1759.300 588.500 C 1756.820 593.814, 1756.500 595.644, 1756.500 604.500 C 1756.500 613.257, 1756.833 615.211, 1759.180 620.218 C 1764.604 631.791, 1775.191 639.997, 1787.224 641.955 C 1794.211 643.092, 1803.606 641.853, 1809.451 639.024 C 1813.894 636.873, 1823 629.487, 1823 628.034 C 1823 627.596, 1821.415 626.029, 1819.479 624.552 L 1815.957 621.866 1812.229 624.796 C 1803.952 631.300, 1795.142 633.420, 1786.473 630.992 C 1780.233 629.245, 1772.876 622.464, 1770.021 615.827 C 1766.833 608.415, 1767.420 596.371, 1771.293 589.763 C 1776.464 580.939, 1783.265 576.987, 1793.218 577.022 C 1800.433 577.047, 1805.772 579.105, 1811.365 584.016 L 1815.100 587.295 1818.550 583.951 C 1820.448 582.112, 1822 580.061, 1822 579.393 C 1822 577.459, 1816.030 572.929, 1809.344 569.790 C 1802.009 566.346, 1792.089 565.370, 1784.500 567.346 M 1858.277 568.020 C 1849.851 570.777, 1841.407 578.542, 1837.401 587.218 C 1834.755 592.947, 1834.500 594.469, 1834.500 604.521 C 1834.500 614.959, 1834.674 615.895, 1837.787 622.218 C 1845.009 636.888, 1860.258 644.595, 1876.826 641.948 C 1880.336 641.387, 1885.394 639.820, 1888.067 638.466 C 1893.215 635.858, 1900 630.408, 1900 628.882 C 1900 628.382, 1898.571 626.695, 1896.824 625.134 L 1893.649 622.297 1888.732 626.018 C 1882.805 630.504, 1878.199 632.003, 1870.384 631.990 C 1863.041 631.978, 1855.325 628.604, 1851.664 623.804 C 1848.613 619.804, 1846 613.912, 1846 611.032 C 1846 609.037, 1846.516 609, 1874.643 609 L 1903.286 609 1902.740 601.250 C 1902.029 591.174, 1898.991 583.319, 1893.399 577.099 C 1884.578 567.288, 1871.134 563.813, 1858.277 568.020 M 1937.903 567.041 C 1926.381 568.920, 1919 576.935, 1919 587.567 C 1919 598.079, 1924.452 602.876, 1942.976 608.666 C 1959.191 613.733, 1963.486 618.291, 1959.434 626.128 C 1955.175 634.363, 1936.429 633.850, 1924.232 625.165 L 1921.179 622.991 1918.079 627.208 L 1914.978 631.424 1920.239 634.751 C 1932.047 642.219, 1949.876 644.249, 1959.595 639.232 C 1970.204 633.755, 1974.683 622.174, 1969.963 612.424 C 1967.220 606.757, 1962.450 603.830, 1947.782 598.814 C 1939.587 596.012, 1934.585 593.706, 1932.750 591.884 C 1927.313 586.487, 1930.273 579.350, 1938.912 577.024 C 1944.198 575.600, 1952.472 577.027, 1959.862 580.637 C 1965.679 583.479, 1965.414 583.570, 1968.631 577.617 C 1969.922 575.229, 1969.958 574.580, 1968.844 573.831 C 1960.931 568.510, 1947.272 565.513, 1937.903 567.041 M 1130 604.500 L 1130 641 1135.500 641 L 1141 641 1141 604.500 L 1141 568 1135.500 568 L 1130 568 1130 604.500 M 1555 604.500 L 1555 641 1560.500 641 L 1566 641 1566 604.500 L 1566 568 1560.500 568 L 1555 568 1555 604.500 M 1188.625 577.469 C 1181.598 579.974, 1175.302 588.004, 1173.508 596.750 L 1172.841 600 1195.940 600 L 1219.038 600 1218.436 597.250 C 1216.291 587.444, 1212.551 581.952, 1205.691 578.533 C 1199.990 575.692, 1194.559 575.354, 1188.625 577.469 M 1614.460 577.012 C 1607.492 579.159, 1600.467 587.871, 1598.545 596.750 L 1597.841 600 1620.896 600 L 1643.950 600 1643.393 596.750 C 1642.224 589.933, 1637.721 582.722, 1632.690 579.612 C 1627.485 576.394, 1619.952 575.319, 1614.460 577.012 M 1859.176 578.600 C 1853.713 581.322, 1849.325 586.544, 1847.159 592.899 C 1844.599 600.409, 1843.370 600, 1868.500 600 C 1893.997 600, 1892.454 600.625, 1889.363 591.553 C 1888.448 588.867, 1885.914 584.868, 1883.613 582.479 C 1876.954 575.566, 1868.088 574.158, 1859.176 578.600 M 932.478 578.871 C 926.962 581.377, 922.135 586.463, 919.211 592.851 C 917.096 597.470, 916.818 599.274, 917.209 605.857 C 917.864 616.907, 922.537 624.618, 931.318 629.143 C 941.041 634.153, 951.687 632.423, 959.555 624.555 C 965.140 618.971, 967.364 613.321, 967.451 604.500 C 967.559 593.532, 961.363 582.887, 952.539 578.878 C 947.219 576.462, 937.788 576.459, 932.478 578.871 M 1026.355 578.447 C 1021.766 580.444, 1015.166 586.756, 1012.778 591.432 C 1009.917 597.034, 1009.273 607.295, 1011.383 613.648 C 1017.316 631.509, 1039.620 637.812, 1052.529 625.275 C 1065.627 612.554, 1062.655 587.909, 1047.038 579.751 C 1041.042 576.619, 1031.884 576.041, 1026.355 578.447 M 1270.383 579.402 C 1261.404 583.583, 1256.704 592.017, 1256.674 604 C 1256.633 620.769, 1266.288 631.441, 1281.500 631.441 C 1289.486 631.441, 1294.444 629.362, 1299.638 623.838 C 1304.584 618.577, 1306.293 614.256, 1306.798 605.734 C 1307.223 598.569, 1307.016 597.475, 1304.123 591.598 C 1297.610 578.368, 1283.532 573.280, 1270.383 579.402" stroke="none" fill="#14130c" fill-rule="evenodd"/><path d="M 13 59.490 L 13 104 57.510 104 L 102.021 104 101.760 59.750 L 101.500 15.500 57.250 15.240 L 13 14.979 13 59.490 M 197 59.500 L 197 104 241.500 104 L 286 104 286 59.500 L 286 15 241.500 15 L 197 15 197 59.500 M 382 59.490 L 382 104 426.510 104 L 471.021 104 470.760 59.750 L 470.500 15.500 426.250 15.240 L 382 14.979 382 59.490 M 566 59.500 L 566 104 610.500 104 L 655 104 655 59.500 L 655 15 610.500 15 L 566 15 566 59.500 M 13 235.500 L 13 280 334 280 L 655 280 655 235.500 L 655 191 334 191 L 13 191 13 235.500 M 13 412.500 L 13 457 334 457 L 655 457 655 412.500 L 655 368 334 368 L 13 368 13 412.500 M 566.500 537.596 C 564.850 537.825, 559.900 538.478, 555.500 539.047 C 542.774 540.691, 528.800 543.610, 493.500 552 C 442.564 564.106, 424.810 567, 401.480 567 C 376.960 567, 359.261 563.233, 335.018 552.856 C 307.050 540.884, 288.440 537.296, 259.574 538.307 C 235.911 539.136, 220.325 541.834, 172.500 553.377 C 126.177 564.557, 112.757 566.840, 88.388 567.687 C 62.536 568.585, 40.811 565.002, 21.250 556.614 L 13 553.076 13 597.491 L 13 641.906 17.750 644.056 C 47.892 657.697, 83.282 660.395, 127 652.386 C 134.425 651.025, 155.350 646.355, 173.500 642.007 C 225.109 629.645, 241.738 627, 267.861 627 C 291.973 627, 310.983 631.043, 332.500 640.748 C 367.164 656.383, 398.291 659.547, 442.781 651.956 C 454.072 650.030, 471.193 646.191, 511.417 636.567 C 542.801 629.058, 557.653 626.844, 580.519 626.265 C 608.452 625.557, 625.680 628.449, 646.930 637.411 L 655 640.815 655 596.454 L 655 552.094 650.250 549.944 C 642.245 546.322, 628.981 542.053, 619 539.886 C 611.624 538.285, 605.029 537.752, 589.500 537.501 C 578.500 537.324, 568.150 537.366, 566.500 537.596" stroke="none" fill="#cc0c24" fill-rule="evenodd"/></svg>